<mxfile host="app.diagrams.net" modified="2020-11-06T15:57:36.080Z" agent="5.0 (Windows)" etag="jXp_TF44ax2j5mZmj3VX" version="13.9.2" type="github">
  <diagram id="sQF0vDoIcSZjFASwgjCQ" name="Page-1">
    <mxGraphModel dx="1038" dy="575" grid="1" gridSize="10" guides="1" tooltips="1" connect="1" arrows="1" fold="1" page="1" pageScale="1" pageWidth="827" pageHeight="1169" math="0" shadow="0">
      <root>
        <mxCell id="0" />
        <mxCell id="1" parent="0" />
        <mxCell id="7_qLz2KC2tYaVWEgI6d9-11" value="" style="shape=cylinder3;whiteSpace=wrap;html=1;boundedLbl=1;backgroundOutline=1;size=15;strokeColor=none;rotation=35;fillColor=#191D79;" parent="1" vertex="1">
          <mxGeometry x="402.64" y="180.9" width="30" height="99.03" as="geometry" />
        </mxCell>
        <mxCell id="7_qLz2KC2tYaVWEgI6d9-8" value="" style="shape=cylinder3;whiteSpace=wrap;html=1;boundedLbl=1;backgroundOutline=1;size=15;fontColor=#ffffff;strokeColor=none;rotation=-45;fillColor=#191D79;" parent="1" vertex="1">
          <mxGeometry x="380.74" y="81.32" width="36.1" height="144.85" as="geometry" />
        </mxCell>
        <mxCell id="7_qLz2KC2tYaVWEgI6d9-3" value="" style="ellipse;whiteSpace=wrap;html=1;rotation=-60;fillColor=#fe5d02;strokeColor=none;" parent="1" vertex="1">
          <mxGeometry x="369" y="160" width="90" height="49.69" as="geometry" />
        </mxCell>
        <mxCell id="7_qLz2KC2tYaVWEgI6d9-4" value="" style="ellipse;whiteSpace=wrap;html=1;rotation=-130;fillColor=#FE5D02;strokeColor=none;" parent="1" vertex="1">
          <mxGeometry x="242.79" y="163.89" width="72" height="49.69" as="geometry" />
        </mxCell>
        <mxCell id="7_qLz2KC2tYaVWEgI6d9-2" value="" style="ellipse;whiteSpace=wrap;html=1;fillColor=#fe5d02;strokeColor=none;" parent="1" vertex="1">
          <mxGeometry x="260" y="160" width="160" height="70" as="geometry" />
        </mxCell>
        <mxCell id="7_qLz2KC2tYaVWEgI6d9-7" value="" style="ellipse;whiteSpace=wrap;html=1;rotation=0;fillColor=#fe5d02;strokeColor=none;" parent="1" vertex="1">
          <mxGeometry x="280.89" y="200" width="131" height="33.6" as="geometry" />
        </mxCell>
        <mxCell id="7_qLz2KC2tYaVWEgI6d9-6" value="" style="ellipse;whiteSpace=wrap;html=1;rotation=-90;fillColor=#26B0FF;strokeColor=none;" parent="1" vertex="1">
          <mxGeometry x="314.43" y="138.35" width="63.92" height="58.9" as="geometry" />
        </mxCell>
        <mxCell id="7_qLz2KC2tYaVWEgI6d9-9" value="" style="shape=cylinder3;whiteSpace=wrap;html=1;boundedLbl=1;backgroundOutline=1;size=15;strokeColor=none;fillColor=#191D79;" parent="1" vertex="1">
          <mxGeometry x="339" y="60" width="30" height="68.35" as="geometry" />
        </mxCell>
        <mxCell id="7_qLz2KC2tYaVWEgI6d9-10" value="" style="rounded=1;whiteSpace=wrap;html=1;strokeColor=none;fillColor=#191D79;" parent="1" vertex="1">
          <mxGeometry x="290" y="224.6" width="110" height="56.4" as="geometry" />
        </mxCell>
        <mxCell id="7_qLz2KC2tYaVWEgI6d9-5" value="" style="ellipse;whiteSpace=wrap;html=1;rotation=-90;fillColor=#26B0FF;strokeColor=none;" parent="1" vertex="1">
          <mxGeometry x="308.9" y="161.1" width="75" height="62.5" as="geometry" />
        </mxCell>
      </root>
    </mxGraphModel>
  </diagram>
</mxfile>
